<svg width="509" height="163" viewBox="0 0 509 163" fill="none" xmlns="http://www.w3.org/2000/svg">
<path d="M7.08336 139.656V27.4757C7.08336 20.9489 19.3212 15.2379 25.4401 13.1982H62.1537L76.4312 15.2379L94.7879 31.555L96.8276 39.7136L102.947 56.0307L96.8276 74.3875L107.026 88.665V111.101L100.907 129.458L82.5501 147.815L47.8762 155.973L17.2816 151.894L7.08336 139.656Z" fill="#4959FE"/>
<path d="M28.9976 11.6127H59.5723C68.4027 11.6127 76.8349 14.2685 84.8686 19.5801C98.8778 29.8712 105.882 42.9842 105.882 58.9189V59.3172C105.882 65.8239 104.654 71.6998 102.198 76.945C108.372 84.9787 111.46 94.1412 111.46 104.432V106.823C111.46 123.488 103.957 137.53 88.9519 148.95C79.9222 154.992 70.461 158.013 60.5682 158.013H28.9976C24.5491 158.013 19.9015 156.419 15.0547 153.232C10.2079 149.913 6.78857 144.966 4.79673 138.393C4.26558 136.003 4 134.21 4 133.015V36.6103C4 30.502 6.62259 24.6593 11.8678 19.0821C15.4531 15.8288 18.9388 13.7374 22.3249 12.8078C25.1135 12.0111 27.3377 11.6127 28.9976 11.6127ZM6.68898 35.3156V127.737C6.68898 137.563 11.3034 144.601 20.5322 148.85C22.8561 149.913 26.6737 150.444 31.9853 150.444H53.1984C62.8256 150.444 69.9962 149.415 74.7102 147.356C79.7562 145.564 85.1342 142.078 90.8441 136.899C100.471 127.272 105.285 115.919 105.285 102.839V102.64C105.285 91.2198 101.932 81.7918 95.2261 74.3556V74.256C97.9483 68.5461 99.3094 64.1308 99.3094 61.0103C99.5086 61.0103 99.6414 59.2508 99.7078 55.7319C99.7078 43.6481 95.1598 33.2242 86.0637 24.4601C81.3497 20.2108 76.6357 17.2231 71.9217 15.4968C67.6724 13.7042 61.0661 12.8078 52.1029 12.8078H32.0849C24.9143 12.8078 19.9347 13.9033 17.1461 16.0944C10.1747 20.4764 6.68898 26.8835 6.68898 35.3156ZM25.5118 17.887H55.1902C66.0125 17.887 75.2414 23.0658 82.8768 33.4234C86.6612 38.9341 88.5535 45.308 88.5535 52.545C88.5535 60.9107 85.7981 67.185 80.2874 71.3679C85.7317 75.6171 89.0515 79.2688 90.2466 82.323C92.7695 86.7714 94.031 92.4481 94.031 99.3532C94.031 112.765 87.8895 123.753 75.6066 132.318C69.6974 136.235 62.2944 138.194 53.3976 138.194H27.2049C20.2999 138.194 15.6854 135.173 13.3616 129.131C12.9633 127.936 12.7641 126.509 12.7641 124.849V31.0331C12.7641 25.5224 15.5195 21.4391 21.0302 18.7833C22.4909 18.1858 23.9848 17.887 25.5118 17.887ZM39.2555 44.478V64.0976H54.3935C59.3067 64.0976 62.228 62.0394 63.1576 57.9229C63.2904 57.0598 63.3568 56.2631 63.3568 55.5327V53.6405C63.3568 48.6609 61.3649 45.7063 57.3812 44.7768C56.9165 44.5776 56.1197 44.478 54.991 44.478H39.2555ZM50.8082 56.7278H57.0825C57.348 56.7278 57.4808 57.1926 57.4808 58.1221V58.8193C57.4808 58.9521 57.3812 59.0185 57.1821 59.0185H50.8082C50.609 59.0185 50.5094 58.9521 50.5094 58.8193V56.927C50.5094 56.7942 50.609 56.7278 50.8082 56.7278ZM39.2555 85.2111V111.503H56.7837C61.9625 111.503 65.8134 108.748 68.3363 103.237C68.6683 102.308 68.9007 100.681 69.0335 98.3572C69.0335 92.3817 66.2449 88.1989 60.6678 85.8087C59.2735 85.4103 57.7796 85.2111 56.1861 85.2111H39.2555ZM50.8082 97.4609H59.2735C60.9997 97.4609 62.1948 98.3904 62.8588 100.249C62.9916 100.98 63.058 101.577 63.058 102.042C63.058 104.3 62.0953 105.727 60.1698 106.325C60.037 106.391 59.7382 106.424 59.2735 106.424H50.8082C50.609 106.424 50.5094 106.358 50.5094 106.225V97.6601C50.5094 97.5273 50.609 97.4609 50.8082 97.4609Z" fill="white"/>
<path d="M21.7853 10.882C18.0072 11.9214 14.255 14.2152 10.5238 17.601L10.4651 17.6542L10.4108 17.7119C4.90924 23.5617 2 29.8722 2 36.6103V133.015C2 134.44 2.30728 136.41 2.84436 138.827L2.86076 138.901L2.88269 138.973C4.98315 145.905 8.64091 151.264 13.9245 154.882L13.9401 154.893L13.9559 154.903C19.0312 158.241 24.056 160.013 28.9976 160.013H60.5682C70.8957 160.013 80.739 156.852 90.0641 150.612L90.1147 150.578L90.1631 150.541C105.591 138.8 113.46 124.2 113.46 106.823V104.432C113.46 94.1158 110.472 84.8467 104.505 76.6887C106.767 71.4351 107.882 65.6347 107.882 59.3172V58.9189C107.882 42.2833 100.521 28.5965 86.0526 17.9682L86.0128 17.939L85.9716 17.9118C77.6416 12.4043 68.8305 9.61273 59.5723 9.61273H28.9976C27.0655 9.61273 24.6363 10.0679 21.7853 10.882Z" stroke="#4959FE" stroke-width="4"/>
<path d="M166.907 23.8866L162.166 34.7936L171.974 109.62L175.587 121.489L188.084 138.365L210.428 151.893L238.741 148.182L254.125 139.994L268.713 125.739L273.886 102.433L270.607 61.7211L265.835 25.319L257.913 11.9578C242.166 1.67944 226.782 9.86702 223.268 14.4419C220.456 18.1017 217.941 26.1113 217.034 29.6586L226.312 100.441L224.555 102.728L220.51 103.258C217.45 85.1454 211.118 47.3021 210.27 40.8306C209.21 32.7413 205.597 20.8724 196.712 15.8657C189.605 11.8603 180.269 15.964 174.202 16.7592L166.907 23.8866Z" fill="#4959FE" stroke="#4959FE" stroke-width="4"/>
<path d="M200.851 14.6188L200.819 14.602L200.787 14.5864C195.34 11.9464 190.223 10.8181 185.505 11.4365L182.542 11.8248C181.86 11.9143 180.453 12.2551 178.491 12.7742L178.368 12.8068L178.25 12.8548C172.435 15.2177 168.002 18.3223 165.165 22.2722C160.471 28.787 158.407 35.4217 159.283 42.1021L168.123 109.546C169.656 121.238 174.625 131.481 182.981 140.23L183.006 140.256L183.032 140.281C196.919 153.81 212.594 159.572 229.936 157.299L231.911 157.04C246.567 155.119 258.796 147.815 268.545 135.284L268.566 135.257L268.586 135.229C277.59 122.793 281.226 109.444 279.367 95.2662L270.488 27.5256C270.286 25.9819 269.662 23.8423 268.708 21.1994L268.667 21.0858L268.613 20.978C265.281 14.3705 260.688 9.58622 254.793 6.79434L254.755 6.77601L254.715 6.75936C249.543 4.57571 244.753 3.67045 240.408 4.2399L239.231 4.39416L239.226 4.35354L239.15 4.40481L237.545 4.61526C235.426 4.89298 232.942 5.71296 230.139 6.97804L230.087 7.00172L230.036 7.02839C223.351 10.5208 218.67 15.5607 216.126 22.1373C215.065 24.1944 214.46 26.7501 214.252 29.7529C214.012 29.0474 213.757 28.3922 213.486 27.7884L213.462 27.7361L213.436 27.6852C210.404 21.8479 206.213 17.4593 200.851 14.6188ZM238.035 9.89094L238.207 9.86841L238.924 9.77444C241.046 9.49624 243.645 9.74871 246.77 10.6438C254.829 13.9577 259.158 19.3757 260.154 26.9718L268.722 92.3424C270.05 102.469 268.43 111.873 263.877 120.615C255.331 135.524 243.313 143.878 227.741 145.919C217.445 147.268 207.719 145.44 198.502 140.414C184.298 132.063 176.258 120.14 174.212 104.53L165.798 40.3441C165.178 35.6137 165.732 31.5753 167.348 28.1453C171.203 21.4907 176.047 18.0162 181.848 17.2558L182.737 17.1393L183.059 17.0971L183.062 17.0955C183.086 17.0931 183.11 17.0904 183.132 17.0875L184.021 16.971C186.596 16.6335 189.703 17.0748 193.404 18.4595C200.51 22.1806 204.232 27.1653 205.048 33.3913L213.578 98.4657C213.696 99.3641 213.883 100.211 214.15 100.996L214.179 101.083L214.217 101.168C214.98 102.877 216.015 104.303 217.418 105.234C218.858 106.19 220.509 106.505 222.244 106.278L222.737 106.213L222.814 106.203L222.889 106.187L224.16 105.92L224.435 105.862L224.684 105.731C226.312 104.869 227.608 103.69 228.406 102.141C229.205 100.593 229.415 98.8522 229.175 97.024L220.671 32.1471C220.189 28.4699 220.694 24.8348 222.219 21.2079C226.053 14.3746 230.91 10.8249 236.752 10.0592L237.739 9.92977L238.035 9.89094ZM196.183 26.6966L196.113 26.5278L196.013 26.3744C194.123 23.462 191.925 21.24 189.376 19.8526C186.802 18.4515 183.982 17.964 180.988 18.3565L179.902 18.4989C178.011 18.7467 176.184 19.4282 174.429 20.492L174.365 20.5304L174.305 20.5734C168.983 24.365 166.444 29.2999 167.222 35.2358L175.881 101.298C176.849 108.686 179.598 115.426 184.107 121.492L184.148 121.547L184.193 121.6C195.252 134.512 208.607 140.107 224.102 138.076C232.031 137.036 239.099 134.035 245.265 129.082L245.293 129.059L245.32 129.036C257.766 118.283 263.068 105.021 261.025 89.434L252.521 24.5571C252.277 22.6956 251.74 20.9103 250.913 19.2083L250.859 19.0974L250.792 18.994C248.94 16.1369 246.769 13.9589 244.236 12.6032C241.681 11.2353 238.875 10.7688 235.891 11.1599L234.904 11.2894C233.467 11.4777 231.98 11.9559 230.456 12.6705L230.331 12.7288L230.216 12.8037C227.3 14.6958 225.078 16.9041 223.693 19.4718C222.296 22.0634 221.815 24.9059 222.211 27.9275L230.508 91.2244C230.792 93.3909 230.884 95.1554 230.812 96.5434C230.737 97.9567 230.498 98.8357 230.234 99.3352L230.2 99.4006L230.17 99.4684C227.97 104.504 224.744 107.038 220.508 107.594L219.718 107.697C218.445 107.864 217.214 107.802 216.01 107.518C212.976 106.734 210.727 105.383 209.129 103.538C207.525 101.685 206.458 99.1945 206.031 95.9394L197.566 31.3587C197.387 29.9948 196.901 28.4274 196.183 26.6966Z" fill="white" stroke="#4959FE" stroke-width="4"/>
<path d="M140.86 7.96175L128.824 4.95241L116.3 8.04251L107.516 15.5243L104.67 25.5273L97.023 121.085L98.2426 131.413L107.595 142.393L127.601 148.086L172.33 151.665L185.18 144.509L192.906 124.666L187.62 114.012L176.235 102.87L145.738 100.429L150.05 20.9741L140.86 7.96175Z" fill="#4959FE"/>
<path d="M129.344 4.99404L132.322 5.23237C137.286 5.62958 142.251 8.09171 147.217 12.6188C152.928 18.6707 155.47 25.6014 154.845 33.411L149.467 100.62L170.414 102.296C180.937 103.138 188.581 108.745 193.346 119.118C194.688 123.155 195.256 126.464 195.049 129.045L194.811 132.023C194.398 137.186 191.93 142.217 187.409 147.117C184.605 149.69 181.992 151.546 179.57 152.684C175.098 154.458 171.208 155.212 167.899 154.947L117.666 150.928C112.305 150.499 107.119 147.886 102.108 143.088C99.0584 139.581 97.0769 136.458 96.1637 133.721C95.0148 129.766 94.541 126.531 94.7423 124.016L102.432 27.9179C102.792 23.4175 104.752 18.9118 108.31 14.4008C112.204 9.85016 117.239 6.85616 123.416 5.4188C126.111 5.035 128.087 4.89341 129.344 4.99404ZM128.745 6.24489L127.851 6.17339C121.233 5.64377 115.182 8.42332 109.7 14.512C107.097 17.9006 105.592 22.1429 105.184 27.239L97.8437 118.969C97.044 128.962 101.273 136.461 110.531 141.465C112.844 142.516 116.318 143.226 120.95 143.597L162.348 146.91C169.562 147.487 174.797 146.574 178.053 144.17C184.777 140.046 188.439 134.244 189.037 126.766C189.662 118.956 186.426 112.37 179.329 107.006C176.163 104.954 172.726 103.78 169.02 103.483L143.507 101.442C143.308 101.426 143.217 101.319 143.233 101.12L148.794 31.6279C149.35 24.6787 148.113 19.3178 145.085 15.5453C142.972 11.9793 139.233 9.18234 133.867 7.15436C132.438 6.70693 131.16 6.4382 130.035 6.34816L129.142 6.27667C129.009 6.26607 128.946 6.22769 128.951 6.1615L128.745 6.24489ZM125.369 10.9703L126.362 11.0497C131.127 11.4311 134.767 14.2201 137.282 19.4169C138.005 21.2065 138.231 23.7889 137.961 27.1643L131.693 105.492L166.042 108.241C171.667 108.691 175.601 111.97 177.843 118.077C178.103 119.83 178.187 121.268 178.097 122.393L178.089 122.493C177.687 127.523 174.89 131.262 169.698 133.711C168.031 134.576 165.641 134.885 162.531 134.636L117.46 131.029C113.092 130.679 109.842 129.254 107.711 126.752C105.017 123.805 103.815 120.512 104.106 116.872L111.629 22.8591C112.048 17.6306 115.01 13.9046 120.517 11.681C122.031 11.0695 123.648 10.8326 125.369 10.9703Z" fill="white"/>
<path d="M129.179 2.97948L128.827 2.89165L128.538 2.96305C127.131 2.9573 125.309 3.12895 123.134 3.43878L123.047 3.45108L122.962 3.47086C120.286 4.09376 117.8 4.99575 115.51 6.17735L115.362 6.21383L115.238 6.31946C112.025 8.02077 109.203 10.2806 106.79 13.1004L106.764 13.1308L106.739 13.1622C106.444 13.5371 106.158 13.9128 105.882 14.2893L105.759 14.3944L105.728 14.5004C102.612 18.815 100.8 23.2382 100.439 27.7584L92.7486 123.856C92.5197 126.717 93.0639 130.219 94.243 134.279L94.254 134.316L94.2665 134.354C95.2985 137.447 97.4691 140.801 100.599 144.401L100.659 144.47L100.725 144.533C105.971 149.555 111.568 152.446 117.507 152.921L167.74 156.941C171.46 157.239 175.67 156.383 180.307 154.543L180.365 154.521L180.42 154.494C183.085 153.242 185.866 151.248 188.761 148.591L188.822 148.534L188.879 148.473C193.616 143.34 196.347 137.906 196.805 132.183L197.043 129.205C197.28 126.239 196.623 122.635 195.244 118.487L195.209 118.383L195.163 118.283C191.3 109.873 185.553 104.319 177.979 101.778L177.634 101.44L177.116 100.934L176.394 100.876L173.272 100.626C172.393 100.484 171.493 100.376 170.573 100.302L151.62 98.7858L156.839 33.5706C157.512 25.1587 154.743 17.6808 148.672 11.2462L148.62 11.1914L148.565 11.1407C146.481 9.24087 144.367 7.66245 142.224 6.42545L142.066 6.20156L141.632 6.09328C138.638 4.45685 135.587 3.48724 132.482 3.23874L131.2 3.13612L131.203 3.09528L131.118 3.12958L129.504 3.00041C129.399 2.992 129.29 2.98503 129.179 2.97948Z" stroke="#4959FE" stroke-width="4"/>
<mask id="path-7-outside-1_17_16" maskUnits="userSpaceOnUse" x="243.761" y="3.07932" width="176" height="155" fill="black">
<rect fill="white" x="243.761" y="3.07932" width="176" height="155"/>
<path d="M249.801 26.011V36.2092L274.276 121.874L286.514 146.35L302.831 150.429L321.188 140.231L331.386 113.716L335.466 130.033L345.664 146.35L366.06 148.39L380.338 134.112L400.734 74.9625C404.813 60.0051 412.564 28.8666 410.932 23.9714C408.893 17.8525 400.734 11.7335 390.536 7.65431C382.377 4.39092 370.819 15.8129 366.06 21.9318L357.902 46.4075C357.222 41.6483 355.046 30.0904 351.783 21.9318C347.703 11.7336 331.386 7.65431 329.347 7.65431C327.715 7.65431 317.789 13.0934 313.03 15.8129L308.95 21.9318L300.792 46.4075L294.673 23.9714C293.313 21.2519 289.37 14.997 284.475 11.7335C278.356 7.65426 266.118 9.6939 262.039 11.7335C258.775 13.3653 252.52 21.9318 249.801 26.011Z"/>
<path d="M273.456 7.65433H275.448C280.958 7.65433 286.535 9.97814 292.179 14.6258C296.03 18.6758 298.287 22.062 298.951 24.7841C299.549 26.5768 300.844 31.2244 302.835 38.727H302.935C305.325 28.1703 307.549 21.6304 309.608 19.1074C312.994 14.1942 317.675 10.7749 323.65 8.84944C326.306 8.0527 328.563 7.65433 330.422 7.65433H332.414C339.518 7.65433 346.058 10.8745 352.034 17.3147C355.021 21.6304 356.515 24.4522 356.515 25.7801C356.847 26.444 358.009 30.7596 360.001 38.727C360.2 38.727 360.864 36.4364 361.993 31.8552C363.52 25.7469 365.014 21.7632 366.475 19.9041C369.263 15.0573 373.944 11.4056 380.517 8.94903C383.239 8.0859 385.563 7.65433 387.488 7.65433H389.381C395.622 7.65433 401.597 10.1441 407.307 15.1237C412.552 20.9664 415.175 26.9088 415.175 32.9507V35.1417C415.175 37.8639 413.283 44.9349 409.498 56.3548C394.161 106.815 385.829 134.07 384.501 138.12C381.38 144.892 376.301 149.672 369.263 152.461C366.275 153.523 363.586 154.054 361.196 154.054H359.105C351.801 154.054 345.129 150.668 339.087 143.896C336.431 140.045 334.738 136.028 334.008 131.845C333.875 131.845 333.045 128.824 331.518 122.783H331.418C329.028 133.206 326.97 139.448 325.244 141.506C322.455 146.419 317.907 150.137 311.599 152.66C308.744 153.59 306.155 154.054 303.831 154.054H302.039C295.598 154.054 289.656 151.531 284.212 146.485C280.892 142.834 278.834 139.614 278.037 136.825C259.247 75.8084 249.288 43.109 248.159 38.727C247.894 37.0671 247.761 35.872 247.761 35.1417V32.9507C247.761 26.7096 250.483 20.7341 255.928 15.0241C259.646 11.638 263.596 9.44699 267.779 8.45107C269.97 7.91991 271.862 7.65433 273.456 7.65433ZM301.242 52.869H300.943C296.096 34.0794 293.241 23.589 292.378 21.398C291.117 18.6094 288.826 15.8873 285.506 13.2315C281.257 10.3765 277.307 8.94903 273.655 8.94903H271.464C267.215 8.94903 262.799 10.6753 258.218 14.1278C253.039 18.9746 250.45 24.5186 250.45 30.7596C250.45 33.8138 251.878 39.4241 254.732 47.5907C271.331 102.3 280.162 131.115 281.224 134.036C282.419 136.427 284.311 138.85 286.901 141.307C291.415 144.759 296.096 146.485 300.943 146.485C308.778 146.485 315.152 142.867 320.065 135.63C321.459 133.24 323.218 127.43 325.343 118.201C325.542 118.002 326.97 112.724 329.626 102.366H329.725C329.924 102.366 331.385 107.777 334.107 118.6C336.298 127.098 337.925 132.509 338.987 134.833C339.917 136.692 341.643 138.817 344.166 141.207C348.614 144.726 353.328 146.485 358.308 146.485C365.545 146.485 371.554 143.332 376.334 137.024C377.994 135.165 380.085 129.555 382.608 120.193C399.273 66.148 407.938 37.5983 408.602 34.5441C408.867 33.2162 409 31.7556 409 30.1621C409 24.3194 406.378 18.9082 401.133 13.9286C396.618 10.6089 392.202 8.94903 387.887 8.94903H385.795C380.55 8.94903 375.405 11.4388 370.359 16.4184C367.902 19.207 365.943 23.7218 364.483 29.9629C364.483 30.2285 362.491 37.8639 358.507 52.869H358.308C353.328 34.0794 350.573 23.9542 350.042 22.4935C347.652 16.85 343.469 12.7667 337.493 10.2437C334.506 9.3142 331.717 8.84944 329.128 8.84944C324.945 9.3142 321.725 10.1773 319.467 11.4388C317.475 12.4347 315.284 14.1942 312.894 16.7172C310.305 20.4353 308.944 22.9583 308.811 24.2862C307.948 27.0747 305.425 36.6024 301.242 52.869ZM269.572 13.9286H270.468C274.916 13.9286 278.635 16.2524 281.622 20.9001C282.353 22.3607 284.477 30.0293 287.996 43.9058C294.104 66.4135 297.59 79.4933 298.453 83.145H298.553C308.247 46.3624 313.658 26.0124 314.786 22.0952C317.641 16.6508 321.691 13.9286 326.937 13.9286H327.634C332.281 13.9286 336.099 16.3852 339.087 21.2984C339.95 23.5558 343.734 37.5983 350.44 63.4258C350.839 64.5545 352.598 71.0944 355.719 83.0454H355.918C366.275 43.5406 371.72 23.0911 372.251 21.6968C375.172 16.518 379.09 13.9286 384.003 13.9286H384.799C388.65 13.9286 392.036 15.6549 394.958 19.1074C396.817 21.6968 397.746 24.3194 397.746 26.9752C397.746 28.8342 396.419 33.8802 393.763 42.1131C377.496 95.5608 368.865 123.712 367.869 126.567C364.947 131.679 360.864 134.236 355.619 134.236C350.639 134.236 346.656 131.646 343.668 126.467C343.07 124.808 337.593 104.292 327.235 64.9197H327.136C316.579 104.69 311.101 125.173 310.703 126.368C307.782 131.613 303.732 134.236 298.553 134.236C293.308 134.236 289.224 131.613 286.303 126.368C267.115 64.0233 257.222 31.5896 256.625 29.0666C256.558 28.6018 256.525 28.0707 256.525 27.4731V26.9752C256.525 22.1947 258.915 18.3439 263.696 15.4225C266.02 14.4266 267.978 13.9286 269.572 13.9286Z"/>
</mask>
<path d="M249.801 26.011V36.2092L274.276 121.874L286.514 146.35L302.831 150.429L321.188 140.231L331.386 113.716L335.466 130.033L345.664 146.35L366.06 148.39L380.338 134.112L400.734 74.9625C404.813 60.0051 412.564 28.8666 410.932 23.9714C408.893 17.8525 400.734 11.7335 390.536 7.65431C382.377 4.39092 370.819 15.8129 366.06 21.9318L357.902 46.4075C357.222 41.6483 355.046 30.0904 351.783 21.9318C347.703 11.7336 331.386 7.65431 329.347 7.65431C327.715 7.65431 317.789 13.0934 313.03 15.8129L308.95 21.9318L300.792 46.4075L294.673 23.9714C293.313 21.2519 289.37 14.997 284.475 11.7335C278.356 7.65426 266.118 9.6939 262.039 11.7335C258.775 13.3653 252.52 21.9318 249.801 26.011Z" fill="#4959FE"/>
<path d="M273.456 7.65433H275.448C280.958 7.65433 286.535 9.97814 292.179 14.6258C296.03 18.6758 298.287 22.062 298.951 24.7841C299.549 26.5768 300.844 31.2244 302.835 38.727H302.935C305.325 28.1703 307.549 21.6304 309.608 19.1074C312.994 14.1942 317.675 10.7749 323.65 8.84944C326.306 8.0527 328.563 7.65433 330.422 7.65433H332.414C339.518 7.65433 346.058 10.8745 352.034 17.3147C355.021 21.6304 356.515 24.4522 356.515 25.7801C356.847 26.444 358.009 30.7596 360.001 38.727C360.2 38.727 360.864 36.4364 361.993 31.8552C363.52 25.7469 365.014 21.7632 366.475 19.9041C369.263 15.0573 373.944 11.4056 380.517 8.94903C383.239 8.0859 385.563 7.65433 387.488 7.65433H389.381C395.622 7.65433 401.597 10.1441 407.307 15.1237C412.552 20.9664 415.175 26.9088 415.175 32.9507V35.1417C415.175 37.8639 413.283 44.9349 409.498 56.3548C394.161 106.815 385.829 134.07 384.501 138.12C381.38 144.892 376.301 149.672 369.263 152.461C366.275 153.523 363.586 154.054 361.196 154.054H359.105C351.801 154.054 345.129 150.668 339.087 143.896C336.431 140.045 334.738 136.028 334.008 131.845C333.875 131.845 333.045 128.824 331.518 122.783H331.418C329.028 133.206 326.97 139.448 325.244 141.506C322.455 146.419 317.907 150.137 311.599 152.66C308.744 153.59 306.155 154.054 303.831 154.054H302.039C295.598 154.054 289.656 151.531 284.212 146.485C280.892 142.834 278.834 139.614 278.037 136.825C259.247 75.8084 249.288 43.109 248.159 38.727C247.894 37.0671 247.761 35.872 247.761 35.1417V32.9507C247.761 26.7096 250.483 20.7341 255.928 15.0241C259.646 11.638 263.596 9.44699 267.779 8.45107C269.97 7.91991 271.862 7.65433 273.456 7.65433ZM301.242 52.869H300.943C296.096 34.0794 293.241 23.589 292.378 21.398C291.117 18.6094 288.826 15.8873 285.506 13.2315C281.257 10.3765 277.307 8.94903 273.655 8.94903H271.464C267.215 8.94903 262.799 10.6753 258.218 14.1278C253.039 18.9746 250.45 24.5186 250.45 30.7596C250.45 33.8138 251.878 39.4241 254.732 47.5907C271.331 102.3 280.162 131.115 281.224 134.036C282.419 136.427 284.311 138.85 286.901 141.307C291.415 144.759 296.096 146.485 300.943 146.485C308.778 146.485 315.152 142.867 320.065 135.63C321.459 133.24 323.218 127.43 325.343 118.201C325.542 118.002 326.97 112.724 329.626 102.366H329.725C329.924 102.366 331.385 107.777 334.107 118.6C336.298 127.098 337.925 132.509 338.987 134.833C339.917 136.692 341.643 138.817 344.166 141.207C348.614 144.726 353.328 146.485 358.308 146.485C365.545 146.485 371.554 143.332 376.334 137.024C377.994 135.165 380.085 129.555 382.608 120.193C399.273 66.148 407.938 37.5983 408.602 34.5441C408.867 33.2162 409 31.7556 409 30.1621C409 24.3194 406.378 18.9082 401.133 13.9286C396.618 10.6089 392.202 8.94903 387.887 8.94903H385.795C380.55 8.94903 375.405 11.4388 370.359 16.4184C367.902 19.207 365.943 23.7218 364.483 29.9629C364.483 30.2285 362.491 37.8639 358.507 52.869H358.308C353.328 34.0794 350.573 23.9542 350.042 22.4935C347.652 16.85 343.469 12.7667 337.493 10.2437C334.506 9.3142 331.717 8.84944 329.128 8.84944C324.945 9.3142 321.725 10.1773 319.467 11.4388C317.475 12.4347 315.284 14.1942 312.894 16.7172C310.305 20.4353 308.944 22.9583 308.811 24.2862C307.948 27.0747 305.425 36.6024 301.242 52.869ZM269.572 13.9286H270.468C274.916 13.9286 278.635 16.2524 281.622 20.9001C282.353 22.3607 284.477 30.0293 287.996 43.9058C294.104 66.4135 297.59 79.4933 298.453 83.145H298.553C308.247 46.3624 313.658 26.0124 314.786 22.0952C317.641 16.6508 321.691 13.9286 326.937 13.9286H327.634C332.281 13.9286 336.099 16.3852 339.087 21.2984C339.95 23.5558 343.734 37.5983 350.44 63.4258C350.839 64.5545 352.598 71.0944 355.719 83.0454H355.918C366.275 43.5406 371.72 23.0911 372.251 21.6968C375.172 16.518 379.09 13.9286 384.003 13.9286H384.799C388.65 13.9286 392.036 15.6549 394.958 19.1074C396.817 21.6968 397.746 24.3194 397.746 26.9752C397.746 28.8342 396.419 33.8802 393.763 42.1131C377.496 95.5608 368.865 123.712 367.869 126.567C364.947 131.679 360.864 134.236 355.619 134.236C350.639 134.236 346.656 131.646 343.668 126.467C343.07 124.808 337.593 104.292 327.235 64.9197H327.136C316.579 104.69 311.101 125.173 310.703 126.368C307.782 131.613 303.732 134.236 298.553 134.236C293.308 134.236 289.224 131.613 286.303 126.368C267.115 64.0233 257.222 31.5896 256.625 29.0666C256.558 28.6018 256.525 28.0707 256.525 27.4731V26.9752C256.525 22.1947 258.915 18.3439 263.696 15.4225C266.02 14.4266 267.978 13.9286 269.572 13.9286Z" fill="white"/>
<path d="M249.801 26.011V36.2092L274.276 121.874L286.514 146.35L302.831 150.429L321.188 140.231L331.386 113.716L335.466 130.033L345.664 146.35L366.06 148.39L380.338 134.112L400.734 74.9625C404.813 60.0051 412.564 28.8666 410.932 23.9714C408.893 17.8525 400.734 11.7335 390.536 7.65431C382.377 4.39092 370.819 15.8129 366.06 21.9318L357.902 46.4075C357.222 41.6483 355.046 30.0904 351.783 21.9318C347.703 11.7336 331.386 7.65431 329.347 7.65431C327.715 7.65431 317.789 13.0934 313.03 15.8129L308.95 21.9318L300.792 46.4075L294.673 23.9714C293.313 21.2519 289.37 14.997 284.475 11.7335C278.356 7.65426 266.118 9.6939 262.039 11.7335C258.775 13.3653 252.52 21.9318 249.801 26.011Z" stroke="#4959FE" stroke-width="8" mask="url(#path-7-outside-1_17_16)"/>
<path d="M273.456 7.65433H275.448C280.958 7.65433 286.535 9.97814 292.179 14.6258C296.03 18.6758 298.287 22.062 298.951 24.7841C299.549 26.5768 300.844 31.2244 302.835 38.727H302.935C305.325 28.1703 307.549 21.6304 309.608 19.1074C312.994 14.1942 317.675 10.7749 323.65 8.84944C326.306 8.0527 328.563 7.65433 330.422 7.65433H332.414C339.518 7.65433 346.058 10.8745 352.034 17.3147C355.021 21.6304 356.515 24.4522 356.515 25.7801C356.847 26.444 358.009 30.7596 360.001 38.727C360.2 38.727 360.864 36.4364 361.993 31.8552C363.52 25.7469 365.014 21.7632 366.475 19.9041C369.263 15.0573 373.944 11.4056 380.517 8.94903C383.239 8.0859 385.563 7.65433 387.488 7.65433H389.381C395.622 7.65433 401.597 10.1441 407.307 15.1237C412.552 20.9664 415.175 26.9088 415.175 32.9507V35.1417C415.175 37.8639 413.283 44.9349 409.498 56.3548C394.161 106.815 385.829 134.07 384.501 138.12C381.38 144.892 376.301 149.672 369.263 152.461C366.275 153.523 363.586 154.054 361.196 154.054H359.105C351.801 154.054 345.129 150.668 339.087 143.896C336.431 140.045 334.738 136.028 334.008 131.845C333.875 131.845 333.045 128.824 331.518 122.783H331.418C329.028 133.206 326.97 139.448 325.244 141.506C322.455 146.419 317.907 150.137 311.599 152.66C308.744 153.59 306.155 154.054 303.831 154.054H302.039C295.598 154.054 289.656 151.531 284.212 146.485C280.892 142.834 278.834 139.614 278.037 136.825C259.247 75.8084 249.288 43.109 248.159 38.727C247.894 37.0671 247.761 35.872 247.761 35.1417V32.9507C247.761 26.7096 250.483 20.7341 255.928 15.0241C259.646 11.638 263.596 9.44699 267.779 8.45107C269.97 7.91991 271.862 7.65433 273.456 7.65433ZM301.242 52.869H300.943C296.096 34.0794 293.241 23.589 292.378 21.398C291.117 18.6094 288.826 15.8873 285.506 13.2315C281.257 10.3765 277.307 8.94903 273.655 8.94903H271.464C267.215 8.94903 262.799 10.6753 258.218 14.1278C253.039 18.9746 250.45 24.5186 250.45 30.7596C250.45 33.8138 251.878 39.4241 254.732 47.5907C271.331 102.3 280.162 131.115 281.224 134.036C282.419 136.427 284.311 138.85 286.901 141.307C291.415 144.759 296.096 146.485 300.943 146.485C308.778 146.485 315.152 142.867 320.065 135.63C321.459 133.24 323.218 127.43 325.343 118.201C325.542 118.002 326.97 112.724 329.626 102.366H329.725C329.924 102.366 331.385 107.777 334.107 118.6C336.298 127.098 337.925 132.509 338.987 134.833C339.917 136.692 341.643 138.817 344.166 141.207C348.614 144.726 353.328 146.485 358.308 146.485C365.545 146.485 371.554 143.332 376.334 137.024C377.994 135.165 380.085 129.555 382.608 120.193C399.273 66.148 407.938 37.5983 408.602 34.5441C408.867 33.2162 409 31.7556 409 30.1621C409 24.3194 406.378 18.9082 401.133 13.9286C396.618 10.6089 392.202 8.94903 387.887 8.94903H385.795C380.55 8.94903 375.405 11.4388 370.359 16.4184C367.902 19.207 365.943 23.7218 364.483 29.9629C364.483 30.2285 362.491 37.8639 358.507 52.869H358.308C353.328 34.0794 350.573 23.9542 350.042 22.4935C347.652 16.85 343.469 12.7667 337.493 10.2437C334.506 9.3142 331.717 8.84944 329.128 8.84944C324.945 9.3142 321.725 10.1773 319.467 11.4388C317.475 12.4347 315.284 14.1942 312.894 16.7172C310.305 20.4353 308.944 22.9583 308.811 24.2862C307.948 27.0747 305.425 36.6024 301.242 52.869ZM269.572 13.9286H270.468C274.916 13.9286 278.635 16.2524 281.622 20.9001C282.353 22.3607 284.477 30.0293 287.996 43.9058C294.104 66.4135 297.59 79.4933 298.453 83.145H298.553C308.247 46.3624 313.658 26.0124 314.786 22.0952C317.641 16.6508 321.691 13.9286 326.937 13.9286H327.634C332.281 13.9286 336.099 16.3852 339.087 21.2984C339.95 23.5558 343.734 37.5983 350.44 63.4258C350.839 64.5545 352.598 71.0944 355.719 83.0454H355.918C366.275 43.5406 371.72 23.0911 372.251 21.6968C375.172 16.518 379.09 13.9286 384.003 13.9286H384.799C388.65 13.9286 392.036 15.6549 394.958 19.1074C396.817 21.6968 397.746 24.3194 397.746 26.9752C397.746 28.8342 396.419 33.8802 393.763 42.1131C377.496 95.5608 368.865 123.712 367.869 126.567C364.947 131.679 360.864 134.236 355.619 134.236C350.639 134.236 346.656 131.646 343.668 126.467C343.07 124.808 337.593 104.292 327.235 64.9197H327.136C316.579 104.69 311.101 125.173 310.703 126.368C307.782 131.613 303.732 134.236 298.553 134.236C293.308 134.236 289.224 131.613 286.303 126.368C267.115 64.0233 257.222 31.5896 256.625 29.0666C256.558 28.6018 256.525 28.0707 256.525 27.4731V26.9752C256.525 22.1947 258.915 18.3439 263.696 15.4225C266.02 14.4266 267.978 13.9286 269.572 13.9286Z" stroke="#4959FE" stroke-width="8" mask="url(#path-7-outside-1_17_16)"/>
<path d="M404.813 127.418V27.4757C404.813 25.4361 406.853 19.3172 408.893 17.2775C410.047 16.1237 412.972 11.1586 425.21 7.07932H455.804L468.042 9.11896L480.28 15.2379C480.96 16.5976 483.544 20.133 488.439 23.3964C493.334 26.6599 499.997 43.7929 502.716 51.9514L498.637 74.3875L492.518 86.6253L478.241 100.903L453.765 109.061L451.725 123.339L447.646 139.656L431.329 149.854C425.89 149.174 414.196 146.999 410.932 143.735C407.669 140.472 405.493 131.497 404.813 127.418Z" fill="#4959FE"/>
<path d="M427.771 7.07932H458.246C472.189 7.07932 484.24 13.6856 494.398 26.8981C501.303 36.7245 504.756 47.2148 504.756 58.3691V60.9585C504.756 77.6899 497.917 91.8652 484.24 103.484C476.472 109.659 466.944 112.746 455.657 112.746V124.1C455.657 131.47 454.396 136.98 451.873 140.632C448.619 146.076 443.872 149.927 437.631 152.185C434.71 153.048 432.419 153.479 430.759 153.479H427.771C423.323 153.479 418.675 151.886 413.829 148.699C408.982 145.446 405.562 140.466 403.571 133.76C403.039 131.569 402.774 129.81 402.774 128.482V32.0769C402.774 25.9686 405.396 20.1258 410.642 14.5487C413.629 11.3618 418.045 9.00476 423.887 7.47768C425.946 7.2121 427.24 7.07932 427.771 7.07932ZM405.463 31.1805V123.203C405.463 132.698 409.712 139.57 418.211 143.819C421.331 145.213 424.385 145.91 427.373 145.91C435.075 145.91 441.349 142.391 446.196 135.354C448.254 131.569 449.283 128.017 449.283 124.697V105.277C449.35 105.078 449.449 104.978 449.582 104.978H453.964C467.309 104.978 477.999 100.198 486.033 90.6369C494.398 81.2753 498.581 69.9218 498.581 56.5765C498.581 41.7041 493.236 29.1887 482.547 19.0303C477.235 14.4491 472.389 11.5278 468.006 10.2663C464.62 8.93836 459.043 8.27442 451.275 8.27442H430.859C423.688 8.27442 418.709 9.36993 415.92 11.5609C408.948 15.8766 405.463 22.4165 405.463 31.1805ZM424.286 13.3536H453.665C462.761 13.3536 470.795 17.5033 477.766 25.8026C484.14 33.3716 487.327 42.4676 487.327 53.0908C487.327 67.3656 481.651 78.7855 470.297 87.3504C465.185 91.0021 459.309 92.8279 452.669 92.8279H438.129V120.216C438.129 125.926 435.274 130.108 429.564 132.764C427.904 133.362 426.311 133.661 424.784 133.661C419.339 133.661 415.223 130.905 412.434 125.394C411.837 123.668 411.538 122.075 411.538 120.614V26.3005C411.538 21.0554 414.194 17.1049 419.505 14.4491C420.966 13.7188 422.559 13.3536 424.286 13.3536ZM438.129 39.9446V66.2369H451.673C454.595 66.2369 456.719 64.9754 458.047 62.4524C459.906 59.531 460.836 56.4105 460.836 53.0908C460.836 47.6464 458.877 43.4303 454.96 40.4426C454.03 40.1106 453.068 39.9446 452.072 39.9446H438.129ZM449.582 52.1944H453.466C454.329 53.1903 454.761 54.6842 454.761 56.6761C454.761 58.6679 454.329 60.1286 453.466 61.0581H449.582C449.383 61.0581 449.283 60.9917 449.283 60.8589V52.3936C449.35 52.2608 449.449 52.1944 449.582 52.1944Z" fill="white"/>
<path d="M427.771 5.07932H425.21H424.885L424.577 5.18195C424.273 5.28327 423.975 5.3852 423.681 5.48766C423.665 5.48981 423.648 5.49197 423.631 5.49413L423.505 5.51044L423.382 5.54268C417.309 7.12987 412.51 9.632 409.184 13.1797C403.683 19.0292 400.774 25.3393 400.774 32.0769V128.482C400.774 130.041 401.08 131.977 401.627 134.231L401.639 134.281L401.653 134.33C403.75 141.389 407.408 146.798 412.714 150.36L412.722 150.365L412.73 150.37C417.805 153.707 422.83 155.479 427.771 155.479H430.759C432.709 155.479 435.218 154.983 438.198 154.103L438.255 154.086L438.311 154.065C444.943 151.667 450.055 147.544 453.556 141.714C456.391 137.574 457.657 131.6 457.657 124.1V114.714C468.475 114.367 477.785 111.17 485.484 105.05L485.51 105.03L485.535 105.008C499.622 93.0408 506.756 78.3237 506.756 60.9585V58.3691C506.756 46.7712 503.157 35.8841 496.035 25.7482L496.01 25.7131L495.984 25.6791C485.53 12.0819 472.935 5.07932 458.246 5.07932H455.97H455.804H427.771Z" stroke="#4959FE" stroke-width="4"/>
</svg>
